Coordinates
version=1
nRows=21
nColumns=28
inDegrees=yes

Units are S.I. units (second, meters, Newtons, ...)
Angles are in degrees.

endheader
time	pelvis_tilt	pelvis_list	pelvis_rotation	pelvis_tx	pelvis_ty	pelvis_tz	hip_flexion_r	hip_adduction_r	hip_rotation_r	knee_angle_r	ankle_angle_r	subtalar_angle_r	mtp_angle_r	hip_flexion_l	hip_adduction_l	hip_rotation_l	knee_angle_l	socket_flexion	socket_adduction	socket_rotation	socket_tx	socket_ty	socket_tz	foot_flex	lumbar_extension	lumbar_bending	lumbar_rotation
      0.00000000	      2.31337575	    -13.91988841	    -14.20385239	     -0.78840636	      1.00030801	      0.31611093	    -24.58164818	     10.47446431	     -0.05894231	    -10.35314556	     -2.26231415	      2.52133913	     39.18408798	     25.83483549	    -17.40081249	     11.01339185	    -24.39865456	    -11.08573456	      0.00000000	      0.00000000	      0.00000000	      0.00000000	      0.00000000	     -1.73473307	    -17.76307846	     11.02672565	     21.67918654
      0.00416667	      2.26986082	    -13.91900735	    -14.10199780	     -0.78327605	      0.99987656	      0.31561950	    -24.64050590	     10.46122585	      0.03334226	    -10.58872642	     -2.31715467	      2.50877481	     39.18504386	     25.67450707	    -17.30825619	     11.02031902	    -24.48572351	    -11.10906465	      0.00000000	      0.00000000	      0.00000000	      0.00000000	      0.00000000	     -1.77936404	    -17.61104524	     11.05262599	     21.66892575
      0.00833333	      2.08590826	    -13.70418373	    -14.20719212	     -0.77820395	      0.99935670	      0.31536566	    -24.24989230	     10.20500073	      0.03165321	    -11.34744784	     -2.63430803	      1.80075507	     39.20301882	     25.60211462	    -17.10311836	     10.83758198	    -24.52134024	    -11.12156941	      0.00000000	      0.00000000	      0.00000000	      0.00000000	      0.00000000	     -2.01135876	    -17.36667702	     10.81742646	     21.49323856
      0.01250000	      2.03969861	    -13.70344423	    -14.08676914	     -0.77264907	      0.99894466	      0.31481919	    -24.30722209	     10.20118691	      0.14692410	    -11.60789557	     -2.70100991	      1.78269101	     39.20374696	     25.43690658	    -16.99487805	     10.85152777	    -24.62170772	    -11.13674802	      0.00000000	      0.00000000	      0.00000000	      0.00000000	      0.00000000	     -2.06246288	    -17.20129964	     10.84496565	     21.48439489
      0.01666667	      1.89012831	    -13.54982256	    -14.15312200	     -0.76738384	      0.99848149	      0.31438555	    -23.91929008	     10.00027897	      0.13433377	    -12.45250874	     -3.14280803	      1.12292703	     39.14166339	     25.35743565	    -16.80981064	     10.76356397	    -24.72516076	    -11.15728616	      0.00000000	      0.00000000	      0.00000000	      0.00000000	      0.00000000	     -2.32046697	    -17.03257053	     10.66737643	     21.30477787
      0.02083333	      1.39587808	    -13.49022809	    -14.19478192	     -0.76164708	      0.99765273	      0.31399134	    -23.48727910	     10.09771730	      0.82491873	    -12.79961503	     -3.66995215	     -0.72998617	     39.25960089	     25.67205008	    -16.75134199	     10.85458872	    -24.88153644	    -11.16927418	      0.00000000	      0.00000000	      0.00000000	      0.00000000	      0.00000000	     -2.43790260	    -16.41590569	     10.74135047	     21.20222300
      0.02500000	      1.37127408	    -13.40488838	    -14.09052955	     -0.75599383	      0.99735314	      0.31334862	    -23.40337688	     10.00528479	      0.96602506	    -13.32574152	     -3.88691921	     -0.84774221	     39.22241061	     25.50205898	    -16.53544639	     10.91629849	    -25.02739814	    -11.18307711	      0.00000000	      0.00000000	      0.00000000	      0.00000000	      0.00000000	     -2.55898704	    -16.33002501	     10.63508664	     21.14249500
      0.02916667	      1.24016002	    -13.12599463	    -14.04286364	     -0.74991178	      0.99696906	      0.31293014	    -23.10938160	      9.72746991	      0.85110000	    -13.98587984	     -4.32890622	     -1.63072811	     39.08697075	     25.40102947	    -16.18130186	     10.75782969	    -25.11939365	    -11.18875859	      0.00000000	      0.00000000	      0.00000000	      0.00000000	      0.00000000	     -2.70654434	    -16.00429565	     10.35733672	     20.90054319
      0.03333333	      1.21750365	    -13.03322442	    -13.91161713	     -0.74415450	      0.99675517	      0.31222469	    -23.00043950	      9.64857104	      1.05415463	    -14.55046909	     -4.57994358	     -1.77891178	     39.05118834	     25.24926863	    -15.93541704	     10.87777663	    -25.29879030	    -11.19990279	      0.00000000	      0.00000000	      0.00000000	      0.00000000	      0.00000000	     -2.81282769	    -15.91530866	     10.24026217	     20.82140708
      0.03750000	      0.86376701	    -12.83233807	    -13.80759458	     -0.73797067	      0.99616594	      0.31170251	    -22.52982757	      9.59542499	      1.23809623	    -15.13989087	     -5.35377108	     -3.61188217	     38.93708673	     25.45824478	    -15.65087521	     10.95030759	    -25.48435674	    -11.20408701	      0.00000000	      0.00000000	      0.00000000	      0.00000000	      0.00000000	     -2.95394384	    -15.35938369	     10.14926056	     20.36584120
      0.04166667	      0.87202183	    -12.70865367	    -13.66243063	     -0.73212986	      0.99609602	      0.31093385	    -22.40408561	      9.48442477	      1.43813342	    -15.76038976	     -5.63399615	     -3.71878084	     38.89168296	     25.28839014	    -15.35670165	     11.05985986	    -25.70019077	    -11.21571843	      0.00000000	      0.00000000	      0.00000000	      0.00000000	      0.00000000	     -3.04010111	    -15.29756785	      9.98923237	     20.30443971
      0.04583333	      0.88301655	    -12.51447350	    -13.53731310	     -0.72622925	      0.99606098	      0.31024504	    -22.17550546	      9.28983058	      1.47702072	    -16.54789580	     -6.07524887	     -3.99360128	     38.79539317	     25.11233995	    -15.00651530	     11.09958870	    -25.91545210	    -11.22343060	      0.00000000	      0.00000000	      0.00000000	      0.00000000	      0.00000000	     -3.15043191	    -15.21852518	      9.75473242	     20.16560113
      0.05000000	      0.85654820	    -12.17195219	    -13.40421118	     -0.71993342	      0.99600972	      0.30967591	    -21.82035895	      8.92911884	      1.13032665	    -17.44514043	     -6.76784405	     -4.68731924	     38.60602985	     24.93573002	    -14.53079217	     10.93945171	    -26.04536444	    -11.22306656	      0.00000000	      0.00000000	      0.00000000	      0.00000000	      0.00000000	     -3.28005505	    -14.97759072	      9.39457912	     19.85523963
      0.05416667	      0.78830484	    -11.75687383	    -13.14204948	     -0.71346557	      0.99588523	      0.30905502	    -21.49885960	      8.58912167	      0.86913446	    -18.14778422	     -7.49244171	     -5.60157755	     38.45707440	     24.87588221	    -13.93417139	     10.92890941	    -26.23170552	    -11.22375103	      0.00000000	      0.00000000	      0.00000000	      0.00000000	      0.00000000	     -3.38572941	    -14.63092699	      8.96430891	     19.40861099
      0.05833333	      0.81716081	    -11.67514050	    -12.90008171	     -0.70713301	      0.99607509	      0.30824367	    -21.46155360	      8.56712569	      1.10598496	    -18.63974661	     -7.69046106	     -5.65218491	     38.44371815	     24.67780433	    -13.65686253	     11.00797333	    -26.45096912	    -11.22787081	      0.00000000	      0.00000000	      0.00000000	      0.00000000	      0.00000000	     -3.41367546	    -14.46428019	      8.90330226	     19.35657812
      0.06250000	      0.68308116	    -11.19150735	    -12.53216556	     -0.70092322	      0.99581264	      0.30735378	    -20.86506395	      8.20495221	      0.60746883	    -19.64215033	     -9.06162619	     -7.39793693	     38.55694123	     24.79490295	    -12.93128507	     11.25405351	    -26.74812688	    -11.23041147	      0.00000000	      0.00000000	      0.00000000	      0.00000000	      0.00000000	     -3.54899728	    -14.12718588	      8.43840407	     18.40818839
      0.06666667	      0.74638558	    -10.89669205	    -12.36818890	     -0.69482437	      0.99606108	      0.30662764	    -20.52174850	      7.87814503	      0.39244032	    -20.64435600	     -9.78715160	     -7.77071282	     38.46608573	     24.57569745	    -12.47476923	     11.16570996	    -26.98218095	    -11.23115336	      0.00000000	      0.00000000	      0.00000000	      0.00000000	      0.00000000	     -3.62073950	    -14.04060556	      8.09758335	     18.21788140
      0.07083333	      0.78728197	    -10.46086652	    -12.01929850	     -0.68837971	      0.99621052	      0.30578632	    -20.19622047	      7.49134395	      0.04475698	    -21.51352828	    -10.59289370	     -8.35110579	     38.52091836	     24.42040731	    -11.80784677	     11.22184179	    -27.19175280	    -11.23042012	      0.00000000	      0.00000000	      0.00000000	      0.00000000	      0.00000000	     -3.69397844	    -13.83668162	      7.62038128	     17.76232484
      0.07500000	      0.87910372	    -10.14891135	    -11.78826854	     -0.68226566	      0.99652231	      0.30496523	    -19.82666701	      7.15173856	     -0.25009401	    -22.58122708	    -11.40897587	     -8.70607000	     38.46642599	     24.19790419	    -11.30840108	     11.17011996	    -27.44517622	    -11.23052669	      0.00000000	      0.00000000	      0.00000000	      0.00000000	      0.00000000	     -3.73314978	    -13.79088525	      7.26244887	     17.47156022
      0.07916667	      0.96572147	     -9.75191831	    -11.49963172	     -0.67593368	      0.99682858	      0.30412169	    -19.44931847	      6.73719854	     -0.65344135	    -23.63512153	    -12.26376882	     -9.11504628	     38.43119378	     23.97238744	    -10.71030322	     11.13430173	    -27.66245647	    -11.22878864	      0.00000000	      0.00000000	      0.00000000	      0.00000000	      0.00000000	     -3.78253486	    -13.67527023	      6.81906508	     17.09502266
      0.08333333	      1.07118078	     -9.33485212	    -11.18037386	     -0.66960955	      0.99716109	      0.30322648	    -19.06101482	      6.29414283	     -1.12172194	    -24.72385970	    -13.15861310	     -9.51136441	     38.43400557	     23.74172508	    -10.07941307	     11.09793279	    -27.89233614	    -11.22742729	      0.00000000	      0.00000000	      0.00000000	      0.00000000	      0.00000000	     -3.82929338	    -13.58244032	      6.35643251	     16.67281023
